<svg viewBox="0 0 64 64" xmlns="http://www.w3.org/2000/svg" fill-rule="evenodd" clip-rule="evenodd" stroke-linejoin="round" stroke-miterlimit="1.414"><path d="M28.466 8.979H.764V31.14h19.678v13.564H.764v8.024h27.702V23.116H6.687v-6.495h21.779V8.979"/><path d="M34.006 8.979v43.749h29.23v-8.024H41.839V8.979h-7.833" fill="#aeaaaa"/><path d="M60.604 41.266l-8.067.382s.86-2.049-3.056-2.484c-2.198-.244-2.202-.237-2.484-.573-.189-.226.032-1.688 0-2.101-.011-.142-.207-.095-.191-.383.028-.497.382-.341.382-.573 0-.217-.379-.135-.382-.573-.002-.317 0-.573 0-.573s-1.467-.407-1.528-.764c-.164-.95 1.198-2.246 1.337-2.866.238-1.065-.198-2.515-.382-3.248-.21-.836.068-2.878.573-3.629.505-.752 3.713-4.086 7.833-4.012 5.452.098 8.8 4.852 8.979 8.024.231 4.097-2 5.859-2.823 7.45-.785 1.518-1.129 3.154-.998 3.821a6.468 6.468 0 0 0 .807 2.102z" fill="#ed7d31"/><path d="M53.421 22.545a4.76 4.76 0 0 0-.239 0l-.171.501a2.77 2.77 0 0 0-.431.08l-.339-.405c-.076.026-.15.055-.224.087l.022.528c-.13.067-.255.144-.372.231l-.463-.255a3.005 3.005 0 0 0-.178.161l.211.485a2.742 2.742 0 0 0-.264.35l-.523-.071c-.039.07-.074.142-.107.215l.372.375a2.674 2.674 0 0 0-.12.422l-.514.123c-.01.08-.018.159-.022.239l.482.216c.002.146.016.292.041.436l-.435.301c.019.078.041.154.066.231.176.008.352.017.527.027.055.135.12.266.196.392l-.297.437c.046.066.094.13.145.192l.502-.166c.1.107.208.206.323.295l-.118.515c.066.045.134.087.204.127l.408-.336c.132.063.269.116.409.158l.075.523c.078.018.157.033.236.044l.259-.46c.146.012.293.012.439 0l.259.46a2.72 2.72 0 0 0 .236-.044l.075-.523c.14-.042.277-.095.409-.158l.408.336c.07-.04.138-.082.204-.127l-.119-.515c.116-.089.224-.188.324-.295l.502.166c.051-.062.099-.126.145-.192l-.297-.437c.076-.126.141-.257.196-.392.175-.01.351-.019.527-.027.025-.077.047-.153.066-.231l-.435-.301c.025-.144.039-.29.041-.436l.482-.216a3.215 3.215 0 0 0-.022-.239l-.514-.123a2.674 2.674 0 0 0-.12-.422l.372-.375a2.867 2.867 0 0 0-.107-.215l-.523.071a2.659 2.659 0 0 0-.265-.35l.212-.485a3.005 3.005 0 0 0-.178-.161l-.463.255a2.684 2.684 0 0 0-.372-.231l.022-.528a3.048 3.048 0 0 0-.224-.087l-.339.405a2.77 2.77 0 0 0-.431-.08l-.171-.501zm-.12 1.717a1.53 1.53 0 1 1-.001 3.06 1.53 1.53 0 0 1 .001-3.06zM58.178 27.704a2.336 2.336 0 0 0-.205 0l-.146.357a1.922 1.922 0 0 0-.366.084l-.287-.259a2.616 2.616 0 0 0-.185.089l.024.386a1.936 1.936 0 0 0-.294.234l-.37-.109a2.187 2.187 0 0 0-.128.16l.188.337a1.952 1.952 0 0 0-.162.339l-.381.062a1.95 1.95 0 0 0-.046.201l.316.221a1.968 1.968 0 0 0 0 .376l-.316.222c.012.067.027.134.046.2l.381.062c.043.118.097.231.162.339l-.188.337c.04.055.083.109.128.16l.37-.109c.091.088.189.166.294.235l-.024.385c.061.032.122.062.185.089l.287-.259c.119.04.242.068.366.084l.146.357c.068.003.137.003.205 0l.146-.357c.125-.016.247-.044.366-.084l.287.259c.063-.027.124-.057.185-.089l-.024-.385c.105-.069.204-.147.294-.235l.37.109c.045-.051.088-.105.128-.16l-.188-.337c.065-.108.119-.221.162-.339l.381-.062c.019-.066.034-.133.046-.2l-.316-.222a1.968 1.968 0 0 0 0-.376l.316-.221a1.95 1.95 0 0 0-.046-.201l-.381-.062a1.952 1.952 0 0 0-.162-.339l.188-.337a2.187 2.187 0 0 0-.128-.16l-.37.109a1.888 1.888 0 0 0-.294-.234l.024-.386a2.616 2.616 0 0 0-.185-.089l-.287.259a1.905 1.905 0 0 0-.366-.084l-.146-.357zm-.102 1.211a1.08 1.08 0 1 1-.003 2.159 1.08 1.08 0 0 1 .003-2.159zM59.506 23.714a1.121 1.121 0 0 0-.142 0l-.101.215a1.14 1.14 0 0 0-.25.067l-.195-.136a1.87 1.87 0 0 0-.123.071l.02.237c-.068.054-.13.116-.184.184l-.236-.021c-.026.04-.05.081-.071.123l.136.195a1.151 1.151 0 0 0-.068.251l-.215.101a1.681 1.681 0 0 0 0 .142l.215.101c.013.086.036.17.068.25l-.136.195c.021.042.045.084.071.123a17.3 17.3 0 0 0 .236-.02c.054.068.116.13.184.184l-.02.236c.04.026.081.05.123.071l.195-.135c.08.031.165.054.25.067l.101.215c.048.002.095.002.142 0l.101-.215c.086-.013.17-.036.251-.067l.195.135c.042-.021.083-.045.123-.071l-.02-.236c.068-.054.129-.116.183-.184l.237.02c.026-.039.049-.081.071-.123l-.136-.195c.032-.08.054-.164.067-.25l.215-.101a1.121 1.121 0 0 0 0-.142l-.215-.101a1.149 1.149 0 0 0-.067-.251l.136-.195a1.507 1.507 0 0 0-.071-.123l-.237.021a1.138 1.138 0 0 0-.183-.184l.02-.237a1.87 1.87 0 0 0-.123-.071l-.195.136a1.149 1.149 0 0 0-.251-.067l-.101-.215zm-.071.718a.64.64 0 1 1 0 1.28.64.64 0 0 1 0-1.28z" fill="#fff"/></svg>